<?xml version="1.0" encoding="UTF-8" standalone="no"?>
<svg xmlns="http://www.w3.org/2000/svg" xmlns:xlink="http://www.w3.org/1999/xlink" contentScriptType="application/ecmascript" contentStyleType="text/css" height="900px" preserveAspectRatio="none" style="width:2805px;height:900px;" version="1.1" viewBox="0 0 2805 900" width="2805px" zoomAndPan="magnify"><defs><filter height="300%" id="f9s2fzpj0by3b" width="300%" x="-1" y="-1"><feGaussianBlur result="blurOut" stdDeviation="2.0"/><feColorMatrix in="blurOut" result="blurOut2" type="matrix" values="0 0 0 0 0 0 0 0 0 0 0 0 0 0 0 0 0 0 .4 0"/><feOffset dx="4.0" dy="4.0" in="blurOut2" result="blurOut3"/><feBlend in="SourceGraphic" in2="blurOut3" mode="normal"/></filter></defs><g><text fill="#000000" font-family="sans-serif" font-size="18" lengthAdjust="spacingAndGlyphs" textLength="258" x="1283.5" y="16.708">ActionFPS portal architecture</text><!--cluster p1--><polygon fill="#FFFFFF" filter="url(#f9s2fzpj0by3b)" points="140,65.9531,281,65.9531,288,92.9063,642,92.9063,642,194.9531,140,194.9531,140,65.9531" style="stroke: #000000; stroke-width: 2.0;"/><line style="stroke: #000000; stroke-width: 2.0;" x1="140" x2="288" y1="92.9063" y2="92.9063"/><text fill="#000000" font-family="sans-serif" font-size="18" font-weight="bold" lengthAdjust="spacingAndGlyphs" textLength="135" x="144" y="84.6611">log collection</text><!--cluster p2--><polygon fill="#FFFFFF" filter="url(#f9s2fzpj0by3b)" points="22,250.9531,420,250.9531,427,277.9063,1461,277.9063,1461,888.9531,22,888.9531,22,250.9531" style="stroke: #000000; stroke-width: 2.0;"/><line style="stroke: #000000; stroke-width: 2.0;" x1="22" x2="427" y1="277.9063" y2="277.9063"/><text fill="#000000" font-family="sans-serif" font-size="18" font-weight="bold" lengthAdjust="spacingAndGlyphs" textLength="392" x="26" y="269.6611">Games, Clanwars, Achivements, Ranks</text><!--cluster p3--><polygon fill="#FFFFFF" filter="url(#f9s2fzpj0by3b)" points="1493,53.4531,1700,53.4531,1707,80.4063,2179,80.4063,2179,207.4531,1493,207.4531,1493,53.4531" style="stroke: #000000; stroke-width: 2.0;"/><line style="stroke: #000000; stroke-width: 2.0;" x1="1493" x2="1707" y1="80.4063" y2="80.4063"/><text fill="#000000" font-family="sans-serif" font-size="18" font-weight="bold" lengthAdjust="spacingAndGlyphs" textLength="201" x="1497" y="72.1611">Pinger (Live games)</text><!--cluster p4--><polygon fill="#FFFFFF" filter="url(#f9s2fzpj0by3b)" points="1493,247.4531,1569,247.4531,1576,274.4063,2158,274.4063,2158,529.4531,1493,529.4531,1493,247.4531" style="stroke: #000000; stroke-width: 2.0;"/><line style="stroke: #000000; stroke-width: 2.0;" x1="1493" x2="1576" y1="274.4063" y2="274.4063"/><text fill="#000000" font-family="sans-serif" font-size="18" font-weight="bold" lengthAdjust="spacingAndGlyphs" textLength="70" x="1497" y="266.1611">Ladder</text><!--cluster p5--><polygon fill="#FFFFFF" filter="url(#f9s2fzpj0by3b)" points="2198,248.9531,2265,248.9531,2272,275.9063,2783,275.9063,2783,530.9531,2198,530.9531,2198,248.9531" style="stroke: #000000; stroke-width: 2.0;"/><line style="stroke: #000000; stroke-width: 2.0;" x1="2198" x2="2272" y1="275.9063" y2="275.9063"/><text fill="#000000" font-family="sans-serif" font-size="18" font-weight="bold" lengthAdjust="spacingAndGlyphs" textLength="61" x="2202" y="267.6611">Inters</text><!--entity syslog--><rect fill="#CFE2F3" filter="url(#f9s2fzpj0by3b)" height="73.9063" style="stroke: #000000; stroke-width: 1.5;" width="163" x="156.5" y="104.9531"/><path d="M232,114.9531 L232,120.9531 L238,120.9531 L238,114.9531 L232,114.9531 M239.5,117.9531 L239.5,122.4531 L235,122.4531 L235,123.9531 L241,123.9531 L241,117.9531 L239.5,117.9531 M242.5,120.9531 L242.5,125.4531 L238,125.4531 L238,126.9531 L244,126.9531 L244,120.9531 L242.5,120.9531 " fill="#000000" style="stroke: ; stroke-width: 0.0; stroke-dasharray: ;"/><text fill="#000000" font-family="sans-serif" font-size="18" lengthAdjust="spacingAndGlyphs" textLength="54" x="211" y="143.6611">syslog</text><text fill="#000000" font-family="sans-serif" font-size="18" lengthAdjust="spacingAndGlyphs" textLength="143" x="166.5" y="164.6143">multiple servers</text><!--entity loglines--><rect fill="#CFE2F3" filter="url(#f9s2fzpj0by3b)" height="73.9063" style="stroke: #000000; stroke-width: 1.5;" width="154" x="355" y="104.9531"/><path d="M426,114.9531 L426,120.9531 L432,120.9531 L432,114.9531 L426,114.9531 M433.5,117.9531 L433.5,122.4531 L429,122.4531 L429,123.9531 L435,123.9531 L435,117.9531 L433.5,117.9531 M436.5,120.9531 L436.5,125.4531 L432,125.4531 L432,126.9531 L438,126.9531 L438,120.9531 L436.5,120.9531 " fill="#000000" style="stroke: ; stroke-width: 0.0; stroke-dasharray: ;"/><text fill="#000000" font-family="sans-serif" font-size="18" lengthAdjust="spacingAndGlyphs" textLength="78" x="393" y="143.6611">Log lines</text><text fill="#000000" font-family="sans-serif" font-size="18" lengthAdjust="spacingAndGlyphs" textLength="134" x="365" y="164.6143">(Syslog server)</text><!--entity flatfile1--><polygon fill="#CFE2F3" filter="url(#f9s2fzpj0by3b)" points="544.5,121.4531,544.5,162.4063,625.5,162.4063,625.5,131.4531,615.5,121.4531,544.5,121.4531" style="stroke: #000000; stroke-width: 1.5;"/><path d="M615.5,121.4531 L615.5,131.4531 L625.5,131.4531 " fill="#CFE2F3" style="stroke: #000000; stroke-width: 1.5;"/><text fill="#000000" font-family="sans-serif" font-size="18" lengthAdjust="spacingAndGlyphs" textLength="61" x="554.5" y="148.1611">flat file</text><!--entity flatFile2--><polygon fill="#CFE2F3" filter="url(#f9s2fzpj0by3b)" points="38.5,449.4531,38.5,490.4063,119.5,490.4063,119.5,459.4531,109.5,449.4531,38.5,449.4531" style="stroke: #000000; stroke-width: 1.5;"/><path d="M109.5,449.4531 L109.5,459.4531 L119.5,459.4531 " fill="#CFE2F3" style="stroke: #000000; stroke-width: 1.5;"/><text fill="#000000" font-family="sans-serif" font-size="18" lengthAdjust="spacingAndGlyphs" textLength="61" x="48.5" y="476.1611">flat file</text><!--entity logLines2--><rect fill="#CFE2F3" filter="url(#f9s2fzpj0by3b)" height="73.9063" style="stroke: #000000; stroke-width: 1.5;" width="60" x="155" y="432.9531"/><path d="M179,442.9531 L179,448.9531 L185,448.9531 L185,442.9531 L179,442.9531 M186.5,445.9531 L186.5,450.4531 L182,450.4531 L182,451.9531 L188,451.9531 L188,445.9531 L186.5,445.9531 M189.5,448.9531 L189.5,453.4531 L185,453.4531 L185,454.9531 L191,454.9531 L191,448.9531 L189.5,448.9531 " fill="#000000" style="stroke: ; stroke-width: 0.0; stroke-dasharray: ;"/><text fill="#000000" font-family="sans-serif" font-size="18" lengthAdjust="spacingAndGlyphs" textLength="32" x="169" y="471.6611">Log</text><text fill="#000000" font-family="sans-serif" font-size="18" lengthAdjust="spacingAndGlyphs" textLength="40" x="165" y="492.6143">lines</text><!--entity gameParser--><rect fill="#CFE2F3" filter="url(#f9s2fzpj0by3b)" height="73.9063" style="stroke: #000000; stroke-width: 1.5;" width="76" x="250" y="432.9531"/><path d="M282,442.9531 L282,448.9531 L288,448.9531 L288,442.9531 L282,442.9531 M289.5,445.9531 L289.5,450.4531 L285,450.4531 L285,451.9531 L291,451.9531 L291,445.9531 L289.5,445.9531 M292.5,448.9531 L292.5,453.4531 L288,453.4531 L288,454.9531 L294,454.9531 L294,448.9531 L292.5,448.9531 " fill="#000000" style="stroke: ; stroke-width: 0.0; stroke-dasharray: ;"/><text fill="#000000" font-family="sans-serif" font-size="18" lengthAdjust="spacingAndGlyphs" textLength="52" x="262" y="471.6611">Game</text><text fill="#000000" font-family="sans-serif" font-size="18" lengthAdjust="spacingAndGlyphs" textLength="56" x="260" y="492.6143">parser</text><!--entity addCountries--><rect fill="#CFE2F3" filter="url(#f9s2fzpj0by3b)" height="40.9531" style="stroke: #000000; stroke-width: 1.5;" width="141" x="361.5" y="449.4531"/><text fill="#000000" font-family="sans-serif" font-size="18" lengthAdjust="spacingAndGlyphs" textLength="121" x="371.5" y="476.1611">Add countries</text><!--entity joinWithUsers--><rect fill="#CFE2F3" filter="url(#f9s2fzpj0by3b)" height="61.9063" style="stroke: #000000; stroke-width: 1.5;" width="97" x="537.5" y="438.9531"/><text fill="#000000" font-family="sans-serif" font-size="18" lengthAdjust="spacingAndGlyphs" textLength="77" x="547.5" y="465.6611">join with</text><text fill="#000000" font-family="sans-serif" font-size="18" lengthAdjust="spacingAndGlyphs" textLength="46" x="563" y="486.6143">users</text><!--entity determineAchievement--><rect fill="#CFE2F3" filter="url(#f9s2fzpj0by3b)" height="61.9063" style="stroke: #000000; stroke-width: 1.5;" width="134" x="670" y="438.9531"/><text fill="#000000" font-family="sans-serif" font-size="18" lengthAdjust="spacingAndGlyphs" textLength="95" x="689.5" y="465.6611">Determine</text><text fill="#000000" font-family="sans-serif" font-size="18" lengthAdjust="spacingAndGlyphs" textLength="114" x="680" y="486.6143">achievement</text><!--entity joinWithClans--><rect fill="#CFE2F3" filter="url(#f9s2fzpj0by3b)" height="61.9063" style="stroke: #000000; stroke-width: 1.5;" width="97" x="839.5" y="438.9531"/><text fill="#000000" font-family="sans-serif" font-size="18" lengthAdjust="spacingAndGlyphs" textLength="77" x="849.5" y="465.6611">join with</text><text fill="#000000" font-family="sans-serif" font-size="18" lengthAdjust="spacingAndGlyphs" textLength="43" x="866.5" y="486.6143">clans</text><!--entity determineClanwar--><rect fill="#CFE2F3" filter="url(#f9s2fzpj0by3b)" height="61.9063" style="stroke: #000000; stroke-width: 1.5;" width="115" x="971.5" y="438.9531"/><text fill="#000000" font-family="sans-serif" font-size="18" lengthAdjust="spacingAndGlyphs" textLength="95" x="981.5" y="465.6611">Determine</text><text fill="#000000" font-family="sans-serif" font-size="18" lengthAdjust="spacingAndGlyphs" textLength="69" x="994.5" y="486.6143">clanwar</text><!--entity richGameRepository--><path d="M1121.5,444.4531 C1121.5,434.4531 1178,434.4531 1178,434.4531 C1178,434.4531 1234.5,434.4531 1234.5,444.4531 L1234.5,495.3594 C1234.5,505.3594 1178,505.3594 1178,505.3594 C1178,505.3594 1121.5,505.3594 1121.5,495.3594 L1121.5,444.4531 " fill="#CFE2F3" filter="url(#f9s2fzpj0by3b)" style="stroke: #000000; stroke-width: 1.5;"/><path d="M1121.5,444.4531 C1121.5,454.4531 1178,454.4531 1178,454.4531 C1178,454.4531 1234.5,454.4531 1234.5,444.4531 " fill="none" style="stroke: #000000; stroke-width: 1.5;"/><text fill="#000000" font-family="sans-serif" font-size="18" lengthAdjust="spacingAndGlyphs" textLength="93" x="1131.5" y="475.1611">Rich game</text><text fill="#000000" font-family="sans-serif" font-size="18" lengthAdjust="spacingAndGlyphs" textLength="91" x="1132.5" y="496.1143">repository</text><!--entity geoIp--><rect fill="#CFE2F3" filter="url(#f9s2fzpj0by3b)" height="40.9531" style="stroke: #000000; stroke-width: 1.5;" width="73" x="395.5" y="310.9531"/><text fill="#000000" font-family="sans-serif" font-size="18" lengthAdjust="spacingAndGlyphs" textLength="53" x="405.5" y="337.6611">GeoIP</text><!--entity userRepository--><path d="M522.5,578.4531 C522.5,568.4531 578,568.4531 578,568.4531 C578,568.4531 633.5,568.4531 633.5,578.4531 L633.5,629.3594 C633.5,639.3594 578,639.3594 578,639.3594 C578,639.3594 522.5,639.3594 522.5,629.3594 L522.5,578.4531 " fill="#CFE2F3" filter="url(#f9s2fzpj0by3b)" style="stroke: #000000; stroke-width: 1.5;"/><path d="M522.5,578.4531 C522.5,588.4531 578,588.4531 578,588.4531 C578,588.4531 633.5,588.4531 633.5,578.4531 " fill="none" style="stroke: #000000; stroke-width: 1.5;"/><text fill="#000000" font-family="sans-serif" font-size="18" lengthAdjust="spacingAndGlyphs" textLength="41" x="557.5" y="609.1611">User</text><text fill="#000000" font-family="sans-serif" font-size="18" lengthAdjust="spacingAndGlyphs" textLength="91" x="532.5" y="630.1143">repository</text><!--entity users.csv--><polygon fill="#CFE2F3" filter="url(#f9s2fzpj0by3b)" points="368,715.9531,368,756.9063,468,756.9063,468,725.9531,458,715.9531,368,715.9531" style="stroke: #000000; stroke-width: 1.5;"/><path d="M458,715.9531 L458,725.9531 L468,725.9531 " fill="#CFE2F3" style="stroke: #000000; stroke-width: 1.5;"/><text fill="#000000" font-family="sans-serif" font-size="18" lengthAdjust="spacingAndGlyphs" textLength="80" x="378" y="742.6611">users csv</text><!--entity nicknames.csv--><polygon fill="#CFE2F3" filter="url(#f9s2fzpj0by3b)" points="503.5,715.9531,503.5,756.9063,652.5,756.9063,652.5,725.9531,642.5,715.9531,503.5,715.9531" style="stroke: #000000; stroke-width: 1.5;"/><path d="M642.5,715.9531 L642.5,725.9531 L652.5,725.9531 " fill="#CFE2F3" style="stroke: #000000; stroke-width: 1.5;"/><text fill="#000000" font-family="sans-serif" font-size="18" lengthAdjust="spacingAndGlyphs" textLength="129" x="513.5" y="742.6611">Nicknames csv</text><!--entity userAchievements--><rect fill="#D9D2E9" filter="url(#f9s2fzpj0by3b)" height="73.9063" style="stroke: #000000; stroke-width: 1.5;" width="142" x="674" y="566.9531"/><path d="M739,576.9531 L739,582.9531 L745,582.9531 L745,576.9531 L739,576.9531 M746.5,579.9531 L746.5,584.4531 L742,584.4531 L742,585.9531 L748,585.9531 L748,579.9531 L746.5,579.9531 M749.5,582.9531 L749.5,587.4531 L745,587.4531 L745,588.9531 L751,588.9531 L751,582.9531 L749.5,582.9531 " fill="#000000" style="stroke: ; stroke-width: 0.0; stroke-dasharray: ;"/><text fill="#000000" font-family="sans-serif" font-size="18" lengthAdjust="spacingAndGlyphs" textLength="41" x="724.5" y="605.6611">User</text><text fill="#000000" font-family="sans-serif" font-size="18" lengthAdjust="spacingAndGlyphs" textLength="122" x="684" y="626.6143">achievements</text><!--entity hallOfFame--><rect fill="#CFE2F3" filter="url(#f9s2fzpj0by3b)" height="40.9531" style="stroke: #000000; stroke-width: 1.5;" width="127" x="687.5" y="715.9531"/><text fill="#000000" font-family="sans-serif" font-size="18" lengthAdjust="spacingAndGlyphs" textLength="107" x="697.5" y="742.6611">Hall of fame</text><!--entity generateClanwars--><rect fill="#CFE2F3" filter="url(#f9s2fzpj0by3b)" height="73.9063" style="stroke: #000000; stroke-width: 1.5;" width="103" x="878.5" y="566.9531"/><path d="M924,576.9531 L924,582.9531 L930,582.9531 L930,576.9531 L924,576.9531 M931.5,579.9531 L931.5,584.4531 L927,584.4531 L927,585.9531 L933,585.9531 L933,579.9531 L931.5,579.9531 M934.5,582.9531 L934.5,587.4531 L930,587.4531 L930,588.9531 L936,588.9531 L936,582.9531 L934.5,582.9531 " fill="#000000" style="stroke: ; stroke-width: 0.0; stroke-dasharray: ;"/><text fill="#000000" font-family="sans-serif" font-size="18" lengthAdjust="spacingAndGlyphs" textLength="83" x="888.5" y="605.6611">Generate</text><text fill="#000000" font-family="sans-serif" font-size="18" lengthAdjust="spacingAndGlyphs" textLength="77" x="891.5" y="626.6143">clanwars</text><!--entity clanwarRepository--><path d="M874.5,710.9531 C874.5,700.9531 930,700.9531 930,700.9531 C930,700.9531 985.5,700.9531 985.5,710.9531 L985.5,761.8594 C985.5,771.8594 930,771.8594 930,771.8594 C930,771.8594 874.5,771.8594 874.5,761.8594 L874.5,710.9531 " fill="#CFE2F3" filter="url(#f9s2fzpj0by3b)" style="stroke: #000000; stroke-width: 1.5;"/><path d="M874.5,710.9531 C874.5,720.9531 930,720.9531 930,720.9531 C930,720.9531 985.5,720.9531 985.5,710.9531 " fill="none" style="stroke: #000000; stroke-width: 1.5;"/><text fill="#000000" font-family="sans-serif" font-size="18" lengthAdjust="spacingAndGlyphs" textLength="73" x="893.5" y="741.6611">Clanwar</text><text fill="#000000" font-family="sans-serif" font-size="18" lengthAdjust="spacingAndGlyphs" textLength="91" x="884.5" y="762.6143">repository</text><!--entity clanRanks--><rect fill="#CFE2F3" filter="url(#f9s2fzpj0by3b)" height="40.9531" style="stroke: #000000; stroke-width: 1.5;" width="112" x="1021" y="715.9531"/><text fill="#000000" font-family="sans-serif" font-size="18" lengthAdjust="spacingAndGlyphs" textLength="92" x="1031" y="742.6611">Clan ranks</text><!--entity challangePublish--><rect fill="#D9EAD3" filter="url(#f9s2fzpj0by3b)" height="40.9531" style="stroke: #000000; stroke-width: 1.5;" width="175" x="842.5" y="831.9531"/><text fill="#000000" font-family="sans-serif" font-size="18" lengthAdjust="spacingAndGlyphs" textLength="155" x="852.5" y="858.6611">Challange Publish</text><!--entity playerRanks--><rect fill="#CFE2F3" filter="url(#f9s2fzpj0by3b)" height="40.9531" style="stroke: #000000; stroke-width: 1.5;" width="129" x="1113.5" y="583.4531"/><text fill="#000000" font-family="sans-serif" font-size="18" lengthAdjust="spacingAndGlyphs" textLength="109" x="1123.5" y="610.1611">Player ranks</text><!--entity userStatistics--><rect fill="#D9D2E9" filter="url(#f9s2fzpj0by3b)" height="52.9531" style="stroke: #000000; stroke-width: 1.5;" width="141" x="1277.5" y="577.4531"/><path d="M1342,587.4531 L1342,593.4531 L1348,593.4531 L1348,587.4531 L1342,587.4531 M1349.5,590.4531 L1349.5,594.9531 L1345,594.9531 L1345,596.4531 L1351,596.4531 L1351,590.4531 L1349.5,590.4531 M1352.5,593.4531 L1352.5,597.9531 L1348,597.9531 L1348,599.4531 L1354,599.4531 L1354,593.4531 L1352.5,593.4531 " fill="#000000" style="stroke: ; stroke-width: 0.0; stroke-dasharray: ;"/><text fill="#000000" font-family="sans-serif" font-size="18" lengthAdjust="spacingAndGlyphs" textLength="121" x="1287.5" y="616.1611">User statistics</text><!--entity challangePublish2--><rect fill="#D9EAD3" filter="url(#f9s2fzpj0by3b)" height="40.9531" style="stroke: #000000; stroke-width: 1.5;" width="175" x="1269.5" y="449.4531"/><text fill="#000000" font-family="sans-serif" font-size="18" lengthAdjust="spacingAndGlyphs" textLength="155" x="1279.5" y="476.1611">Challange Publish</text><!--entity eventSourceEndpoint--><rect fill="#D9EAD3" filter="url(#f9s2fzpj0by3b)" height="82.8594" style="stroke: #000000; stroke-width: 1.5;" width="173" x="1091.5" y="289.9531"/><text fill="#000000" font-family="sans-serif" font-size="18" lengthAdjust="spacingAndGlyphs" textLength="112" x="1122" y="316.6611">EventSource</text><text fill="#000000" font-family="sans-serif" font-size="18" lengthAdjust="spacingAndGlyphs" textLength="153" x="1101.5" y="337.6143">endpoint for new</text><text fill="#000000" font-family="sans-serif" font-size="18" lengthAdjust="spacingAndGlyphs" textLength="57" x="1149.5" y="358.5674">games</text><!--entity gameServers--><rect fill="#CFE2F3" filter="url(#f9s2fzpj0by3b)" height="73.9063" style="stroke: #000000; stroke-width: 1.5;" width="85" x="1536.5" y="104.9531"/><path d="M1573,114.9531 L1573,120.9531 L1579,120.9531 L1579,114.9531 L1573,114.9531 M1580.5,117.9531 L1580.5,122.4531 L1576,122.4531 L1576,123.9531 L1582,123.9531 L1582,117.9531 L1580.5,117.9531 M1583.5,120.9531 L1583.5,125.4531 L1579,125.4531 L1579,126.9531 L1585,126.9531 L1585,120.9531 L1583.5,120.9531 " fill="#000000" style="stroke: ; stroke-width: 0.0; stroke-dasharray: ;"/><text fill="#000000" font-family="sans-serif" font-size="18" lengthAdjust="spacingAndGlyphs" textLength="52" x="1553" y="143.6611">Game</text><text fill="#000000" font-family="sans-serif" font-size="18" lengthAdjust="spacingAndGlyphs" textLength="65" x="1546.5" y="164.6143">servers</text><!--entity udpServer--><rect fill="#CFE2F3" filter="url(#f9s2fzpj0by3b)" height="73.9063" style="stroke: #000000; stroke-width: 1.5;" width="146" x="1657" y="104.9531"/><path d="M1724,114.9531 L1724,120.9531 L1730,120.9531 L1730,114.9531 L1724,114.9531 M1731.5,117.9531 L1731.5,122.4531 L1727,122.4531 L1727,123.9531 L1733,123.9531 L1733,117.9531 L1731.5,117.9531 M1734.5,120.9531 L1734.5,125.4531 L1730,125.4531 L1730,126.9531 L1736,126.9531 L1736,120.9531 L1734.5,120.9531 " fill="#000000" style="stroke: ; stroke-width: 0.0; stroke-dasharray: ;"/><text fill="#000000" font-family="sans-serif" font-size="18" lengthAdjust="spacingAndGlyphs" textLength="102" x="1679" y="143.6611">UDP server</text><text fill="#000000" font-family="sans-serif" font-size="18" lengthAdjust="spacingAndGlyphs" textLength="126" x="1667" y="164.6143">status updates</text><!--entity statusParser--><rect fill="#CFE2F3" filter="url(#f9s2fzpj0by3b)" height="52.9531" style="stroke: #000000; stroke-width: 1.5;" width="136" x="1838" y="115.4531"/><path d="M1900,125.4531 L1900,131.4531 L1906,131.4531 L1906,125.4531 L1900,125.4531 M1907.5,128.4531 L1907.5,132.9531 L1903,132.9531 L1903,134.4531 L1909,134.4531 L1909,128.4531 L1907.5,128.4531 M1910.5,131.4531 L1910.5,135.9531 L1906,135.9531 L1906,137.4531 L1912,137.4531 L1912,131.4531 L1910.5,131.4531 " fill="#000000" style="stroke: ; stroke-width: 0.0; stroke-dasharray: ;"/><text fill="#000000" font-family="sans-serif" font-size="18" lengthAdjust="spacingAndGlyphs" textLength="116" x="1848" y="154.1611">Status parser</text><!--entity eventSourceEndpoint2--><rect fill="#D9EAD3" filter="url(#f9s2fzpj0by3b)" height="82.8594" style="stroke: #000000; stroke-width: 1.5;" width="146" x="2009" y="100.4531"/><text fill="#000000" font-family="sans-serif" font-size="18" lengthAdjust="spacingAndGlyphs" textLength="112" x="2026" y="127.1611">EventSource</text><text fill="#000000" font-family="sans-serif" font-size="18" lengthAdjust="spacingAndGlyphs" textLength="109" x="2027.5" y="148.1143">endpoint for</text><text fill="#000000" font-family="sans-serif" font-size="18" lengthAdjust="spacingAndGlyphs" textLength="126" x="2019" y="169.0674">status updates</text><!--entity sshLogFile--><polygon fill="#CFE2F3" filter="url(#f9s2fzpj0by3b)" points="1536,310.9531,1536,351.9063,1658,351.9063,1658,320.9531,1648,310.9531,1536,310.9531" style="stroke: #000000; stroke-width: 1.5;"/><path d="M1648,310.9531 L1648,320.9531 L1658,320.9531 " fill="#CFE2F3" style="stroke: #000000; stroke-width: 1.5;"/><text fill="#000000" font-family="sans-serif" font-size="18" lengthAdjust="spacingAndGlyphs" textLength="102" x="1546" y="337.6611">SSH log file</text><!--entity logLines3--><rect fill="#CFE2F3" filter="url(#f9s2fzpj0by3b)" height="52.9531" style="stroke: #000000; stroke-width: 1.5;" width="98" x="1693" y="304.9531"/><path d="M1736,314.9531 L1736,320.9531 L1742,320.9531 L1742,314.9531 L1736,314.9531 M1743.5,317.9531 L1743.5,322.4531 L1739,322.4531 L1739,323.9531 L1745,323.9531 L1745,317.9531 L1743.5,317.9531 M1746.5,320.9531 L1746.5,325.4531 L1742,325.4531 L1742,326.9531 L1748,326.9531 L1748,320.9531 L1746.5,320.9531 " fill="#000000" style="stroke: ; stroke-width: 0.0; stroke-dasharray: ;"/><text fill="#000000" font-family="sans-serif" font-size="18" lengthAdjust="spacingAndGlyphs" textLength="78" x="1703" y="343.6611">Log lines</text><!--entity joinWithUsers2--><rect fill="#CFE2F3" filter="url(#f9s2fzpj0by3b)" height="40.9531" style="stroke: #000000; stroke-width: 1.5;" width="149" x="1826.5" y="310.9531"/><text fill="#000000" font-family="sans-serif" font-size="18" lengthAdjust="spacingAndGlyphs" textLength="129" x="1836.5" y="337.6611">join with users</text><!--entity userLadderStatistics--><rect fill="#D9D2E9" filter="url(#f9s2fzpj0by3b)" height="73.9063" style="stroke: #000000; stroke-width: 1.5;" width="123" x="2010.5" y="294.4531"/><path d="M2066,304.4531 L2066,310.4531 L2072,310.4531 L2072,304.4531 L2066,304.4531 M2073.5,307.4531 L2073.5,311.9531 L2069,311.9531 L2069,313.4531 L2075,313.4531 L2075,307.4531 L2073.5,307.4531 M2076.5,310.4531 L2076.5,314.9531 L2072,314.9531 L2072,316.4531 L2078,316.4531 L2078,310.4531 L2076.5,310.4531 " fill="#000000" style="stroke: ; stroke-width: 0.0; stroke-dasharray: ;"/><text fill="#000000" font-family="sans-serif" font-size="18" lengthAdjust="spacingAndGlyphs" textLength="103" x="2020.5" y="333.1611">User ladder</text><text fill="#000000" font-family="sans-serif" font-size="18" lengthAdjust="spacingAndGlyphs" textLength="74" x="2035" y="354.1143">statistics</text><!--entity userRepository2--><path d="M1845.5,444.4531 C1845.5,434.4531 1901,434.4531 1901,434.4531 C1901,434.4531 1956.5,434.4531 1956.5,444.4531 L1956.5,495.3594 C1956.5,505.3594 1901,505.3594 1901,505.3594 C1901,505.3594 1845.5,505.3594 1845.5,495.3594 L1845.5,444.4531 " fill="#CFE2F3" filter="url(#f9s2fzpj0by3b)" style="stroke: #000000; stroke-width: 1.5;"/><path d="M1845.5,444.4531 C1845.5,454.4531 1901,454.4531 1901,454.4531 C1901,454.4531 1956.5,454.4531 1956.5,444.4531 " fill="none" style="stroke: #000000; stroke-width: 1.5;"/><text fill="#000000" font-family="sans-serif" font-size="18" lengthAdjust="spacingAndGlyphs" textLength="41" x="1880.5" y="475.1611">User</text><text fill="#000000" font-family="sans-serif" font-size="18" lengthAdjust="spacingAndGlyphs" textLength="91" x="1855.5" y="496.1143">repository</text><!--entity userRepository3--><path d="M2461.5,305.9531 C2461.5,295.9531 2517,295.9531 2517,295.9531 C2517,295.9531 2572.5,295.9531 2572.5,305.9531 L2572.5,356.8594 C2572.5,366.8594 2517,366.8594 2517,366.8594 C2517,366.8594 2461.5,366.8594 2461.5,356.8594 L2461.5,305.9531 " fill="#CFE2F3" filter="url(#f9s2fzpj0by3b)" style="stroke: #000000; stroke-width: 1.5;"/><path d="M2461.5,305.9531 C2461.5,315.9531 2517,315.9531 2517,315.9531 C2517,315.9531 2572.5,315.9531 2572.5,305.9531 " fill="none" style="stroke: #000000; stroke-width: 1.5;"/><text fill="#000000" font-family="sans-serif" font-size="18" lengthAdjust="spacingAndGlyphs" textLength="41" x="2496.5" y="336.6611">User</text><text fill="#000000" font-family="sans-serif" font-size="18" lengthAdjust="spacingAndGlyphs" textLength="91" x="2471.5" y="357.6143">repository</text><!--entity flatFile3--><polygon fill="#CFE2F3" filter="url(#f9s2fzpj0by3b)" points="2230.5,449.4531,2230.5,490.4063,2311.5,490.4063,2311.5,459.4531,2301.5,449.4531,2230.5,449.4531" style="stroke: #000000; stroke-width: 1.5;"/><path d="M2301.5,449.4531 L2301.5,459.4531 L2311.5,459.4531 " fill="#CFE2F3" style="stroke: #000000; stroke-width: 1.5;"/><text fill="#000000" font-family="sans-serif" font-size="18" lengthAdjust="spacingAndGlyphs" textLength="61" x="2240.5" y="476.1611">flat file</text><!--entity logLines4--><rect fill="#CFE2F3" filter="url(#f9s2fzpj0by3b)" height="73.9063" style="stroke: #000000; stroke-width: 1.5;" width="60" x="2347" y="432.9531"/><path d="M2371,442.9531 L2371,448.9531 L2377,448.9531 L2377,442.9531 L2371,442.9531 M2378.5,445.9531 L2378.5,450.4531 L2374,450.4531 L2374,451.9531 L2380,451.9531 L2380,445.9531 L2378.5,445.9531 M2381.5,448.9531 L2381.5,453.4531 L2377,453.4531 L2377,454.9531 L2383,454.9531 L2383,448.9531 L2381.5,448.9531 " fill="#000000" style="stroke: ; stroke-width: 0.0; stroke-dasharray: ;"/><text fill="#000000" font-family="sans-serif" font-size="18" lengthAdjust="spacingAndGlyphs" textLength="32" x="2361" y="471.6611">Log</text><text fill="#000000" font-family="sans-serif" font-size="18" lengthAdjust="spacingAndGlyphs" textLength="40" x="2357" y="492.6143">lines</text><!--entity joinWithUsers3--><rect fill="#CFE2F3" filter="url(#f9s2fzpj0by3b)" height="40.9531" style="stroke: #000000; stroke-width: 1.5;" width="149" x="2442.5" y="449.4531"/><text fill="#000000" font-family="sans-serif" font-size="18" lengthAdjust="spacingAndGlyphs" textLength="129" x="2452.5" y="476.1611">join with users</text><!--entity eventSourceEndpoint3--><rect fill="#D9EAD3" filter="url(#f9s2fzpj0by3b)" height="61.9063" style="stroke: #000000; stroke-width: 1.5;" width="132" x="2627" y="438.9531"/><text fill="#000000" font-family="sans-serif" font-size="18" lengthAdjust="spacingAndGlyphs" textLength="112" x="2637" y="465.6611">EventSource</text><text fill="#000000" font-family="sans-serif" font-size="18" lengthAdjust="spacingAndGlyphs" textLength="78" x="2654" y="486.6143">endpoint</text><!--link syslog to loglines--><path d="M319.844,141.9531 C329.793,141.9531 339.741,141.9531 349.69,141.9531 " fill="none" id="syslog-loglines" style="stroke: #000000; stroke-width: 1.0;"/><polygon fill="#000000" points="354.893,141.9531,345.893,137.9531,349.893,141.9531,345.893,145.9531,354.893,141.9531" style="stroke: #000000; stroke-width: 1.0;"/><!--link loglines to flatfile1--><path d="M509.098,141.9531 C519.113,141.9531 529.128,141.9531 539.143,141.9531 " fill="none" id="loglines-flatfile1" style="stroke: #000000; stroke-width: 1.0;"/><polygon fill="#000000" points="544.38,141.9531,535.38,137.9531,539.38,141.9531,535.38,145.9531,544.38,141.9531" style="stroke: #000000; stroke-width: 1.0;"/><!--link flatFile2 to logLines2--><path d="M119.578,469.9531 C129.589,469.9531 139.599,469.9531 149.61,469.9531 " fill="none" id="flatFile2-logLines2" style="stroke: #000000; stroke-width: 1.0;"/><polygon fill="#000000" points="154.845,469.9531,145.845,465.9531,149.845,469.9531,145.845,473.9531,154.845,469.9531" style="stroke: #000000; stroke-width: 1.0;"/><!--link logLines2 to gameParser--><path d="M215.176,469.9531 C225.027,469.9531 234.878,469.9531 244.73,469.9531 " fill="none" id="logLines2-gameParser" style="stroke: #000000; stroke-width: 1.0;"/><polygon fill="#000000" points="249.881,469.9531,240.881,465.9531,244.881,469.9531,240.881,473.9531,249.881,469.9531" style="stroke: #000000; stroke-width: 1.0;"/><!--link gameParser to addCountries--><path d="M326.25,469.9531 C336.217,469.9531 346.184,469.9531 356.15,469.9531 " fill="none" id="gameParser-addCountries" style="stroke: #000000; stroke-width: 1.0;"/><polygon fill="#000000" points="361.362,469.9531,352.362,465.9531,356.362,469.9531,352.362,473.9531,361.362,469.9531" style="stroke: #000000; stroke-width: 1.0;"/><!--link addCountries to joinWithUsers--><path d="M502.684,469.9531 C512.476,469.9531 522.269,469.9531 532.061,469.9531 " fill="none" id="addCountries-joinWithUsers" style="stroke: #000000; stroke-width: 1.0;"/><polygon fill="#000000" points="537.182,469.9531,528.182,465.9531,532.182,469.9531,528.182,473.9531,537.182,469.9531" style="stroke: #000000; stroke-width: 1.0;"/><!--link joinWithUsers to determineAchievement--><path d="M634.662,469.9531 C644.648,469.9531 654.633,469.9531 664.619,469.9531 " fill="none" id="joinWithUsers-determineAchievement" style="stroke: #000000; stroke-width: 1.0;"/><polygon fill="#000000" points="669.841,469.9531,660.841,465.9531,664.841,469.9531,660.841,473.9531,669.841,469.9531" style="stroke: #000000; stroke-width: 1.0;"/><!--link determineAchievement to joinWithClans--><path d="M804.242,469.9531 C814.179,469.9531 824.117,469.9531 834.054,469.9531 " fill="none" id="determineAchievement-joinWithClans" style="stroke: #000000; stroke-width: 1.0;"/><polygon fill="#000000" points="839.25,469.9531,830.25,465.9531,834.25,469.9531,830.25,473.9531,839.25,469.9531" style="stroke: #000000; stroke-width: 1.0;"/><!--link joinWithClans to determineClanwar--><path d="M936.744,469.9531 C946.564,469.9531 956.385,469.9531 966.205,469.9531 " fill="none" id="joinWithClans-determineClanwar" style="stroke: #000000; stroke-width: 1.0;"/><polygon fill="#000000" points="971.34,469.9531,962.34,465.9531,966.34,469.9531,962.34,473.9531,971.34,469.9531" style="stroke: #000000; stroke-width: 1.0;"/><!--link determineClanwar to richGameRepository--><path d="M1086.62,469.9531 C1096.45,469.9531 1106.28,469.9531 1116.11,469.9531 " fill="none" id="determineClanwar-richGameRepository" style="stroke: #000000; stroke-width: 1.0;"/><polygon fill="#000000" points="1121.25,469.9531,1112.25,465.9531,1116.25,469.9531,1112.25,473.9531,1121.25,469.9531" style="stroke: #000000; stroke-width: 1.0;"/><!--link loglines to geoIp--><!--link geoIp to addCountries--><path d="M432,352.0101 C432,376.3371 432,417.8851 432,444.3501 " fill="none" id="geoIp-addCountries" style="stroke: #000000; stroke-width: 1.0;"/><polygon fill="#000000" points="432,449.4321,436,440.4321,432,444.4321,428,440.4321,432,449.4321" style="stroke: #000000; stroke-width: 1.0;"/><!--link joinWithUsers to userRepository--><path d="M584.165,501.2361 C583.055,519.5431 581.628,543.0951 580.426,562.9251 " fill="none" id="joinWithUsers-userRepository" style="stroke: #000000; stroke-width: 1.0;"/><polygon fill="#000000" points="580.11,568.1461,584.6477,559.4049,580.4128,563.1553,576.6624,558.9204,580.11,568.1461" style="stroke: #000000; stroke-width: 1.0;"/><!--link userRepository to users.csv--><path d="M531.652,642.7551 C502.424,666.5951 465.866,696.4121 442.231,715.6891 " fill="none" id="userRepository-users.csv" style="stroke: #000000; stroke-width: 1.0;"/><polygon fill="#000000" points="535.543,639.5821,526.0405,642.1709,531.6684,642.7424,531.0969,648.3703,535.543,639.5821" style="stroke: #000000; stroke-width: 1.0;"/><!--link userRepository to nicknames.csv--><path d="M578,644.8131 C578,668.2901 578,696.9631 578,715.6891 " fill="none" id="userRepository-nicknames.csv" style="stroke: #000000; stroke-width: 1.0;"/><polygon fill="#000000" points="578,639.5821,574,648.5821,578,644.5821,582,648.5821,578,639.5821" style="stroke: #000000; stroke-width: 1.0;"/><!--link determineAchievement to userAchievements--><path d="M738.835,501.2361 C739.915,519.0471 741.295,541.8241 742.476,561.3081 " fill="none" id="determineAchievement-userAchievements" style="stroke: #000000; stroke-width: 1.0;"/><polygon fill="#000000" points="742.803,566.7091,746.2506,557.4834,742.5002,561.7183,738.2653,557.9679,742.803,566.7091" style="stroke: #000000; stroke-width: 1.0;"/><!--link userAchievements to hallOfFame--><path d="M746.655,640.9581 C747.674,663.1201 748.954,690.9561 749.86,710.6611 " fill="none" id="userAchievements-hallOfFame" style="stroke: #000000; stroke-width: 1.0;"/><polygon fill="#000000" points="750.094,715.7391,753.6757,706.5646,749.864,710.7444,745.6842,706.9327,750.094,715.7391" style="stroke: #000000; stroke-width: 1.0;"/><!--link joinWithClans to generateClanwars--><path d="M897.636,501.2361 C903.351,519.2001 910.674,542.2141 916.908,561.8071 " fill="none" id="joinWithClans-generateClanwars" style="stroke: #000000; stroke-width: 1.0;"/><polygon fill="#000000" points="918.468,566.7091,919.5512,556.92,916.9522,561.9444,911.9277,559.3454,918.468,566.7091" style="stroke: #000000; stroke-width: 1.0;"/><!--link determineClanwar to generateClanwars--><path d="M1006.29,501.2361 C992.701,519.3521 975.261,542.6041 960.487,562.3041 " fill="none" id="determineClanwar-generateClanwars" style="stroke: #000000; stroke-width: 1.0;"/><polygon fill="#000000" points="957.183,566.7091,965.783,561.9091,960.183,562.7091,959.383,557.1091,957.183,566.7091" style="stroke: #000000; stroke-width: 1.0;"/><!--link generateClanwars to clanwarRepository--><path d="M930,640.9581 C930,657.9141 930,678.1921 930,695.6091 " fill="none" id="generateClanwars-clanwarRepository" style="stroke: #000000; stroke-width: 1.0;"/><polygon fill="#000000" points="930,700.9151,934,691.9151,930,695.9151,926,691.9151,930,700.9151" style="stroke: #000000; stroke-width: 1.0;"/><!--link clanwarRepository to clanRanks--><path d="M985.699,736.4531 C995.62,736.4531 1005.541,736.4531 1015.46,736.4531 " fill="none" id="clanwarRepository-clanRanks" style="stroke: #000000; stroke-width: 1.0;"/><polygon fill="#000000" points="1020.65,736.4531,1011.65,732.4531,1015.65,736.4531,1011.65,740.4531,1020.65,736.4531" style="stroke: #000000; stroke-width: 1.0;"/><!--link clanwarRepository to challangePublish--><path d="M930,771.9661 C930,789.5121 930,810.4428 930,826.4208 " fill="none" id="clanwarRepository-challangePublish" style="stroke: #000000; stroke-width: 1.0;"/><polygon fill="#000000" points="930,831.6375,934,822.6375,930,826.6375,926,822.6375,930,831.6375" style="stroke: #000000; stroke-width: 1.0;"/><!--link richGameRepository to clanRanks--><path d="M1139.49,505.6401 C1123.3,522.4881 1105.95,544.0321 1096,566.9531 C1075.3,614.6291 1074.12,676.6891 1075.37,710.6171 " fill="none" id="richGameRepository-clanRanks" style="stroke: #000000; stroke-width: 1.0;"/><polygon fill="#000000" points="1075.59,715.8141,1079.2062,706.6532,1075.3788,710.8186,1071.2133,706.9912,1075.59,715.8141" style="stroke: #000000; stroke-width: 1.0;"/><!--link richGameRepository to playerRanks--><path d="M1178,505.6341 C1178,528.4501 1178,557.7651 1178,578.2321 " fill="none" id="richGameRepository-playerRanks" style="stroke: #000000; stroke-width: 1.0;"/><polygon fill="#000000" points="1178,583.2361,1182,574.2361,1178,578.2361,1174,574.2361,1178,583.2361" style="stroke: #000000; stroke-width: 1.0;"/><!--link richGameRepository to userStatistics--><path d="M1207.89,505.5061 C1220.71,519.2651 1236.33,534.7051 1252,546.9531 C1264.81,556.9671 1279.59,566.4571 1293.66,574.6831 " fill="none" id="richGameRepository-userStatistics" style="stroke: #000000; stroke-width: 1.0;"/><polygon fill="#000000" points="1298,577.1941,1292.2279,569.214,1293.6768,574.6821,1288.2087,576.1311,1298,577.1941" style="stroke: #000000; stroke-width: 1.0;"/><!--link richGameRepository to challangePublish2--><path d="M1234.64,469.9531 C1244.41,469.9531 1254.17,469.9531 1263.94,469.9531 " fill="none" id="richGameRepository-challangePublish2" style="stroke: #000000; stroke-width: 1.0;"/><polygon fill="#000000" points="1269.05,469.9531,1260.05,465.9531,1264.05,469.9531,1260.05,473.9531,1269.05,469.9531" style="stroke: #000000; stroke-width: 1.0;"/><!--link eventSourceEndpoint to richGameRepository--><path d="M1178,378.1381 C1178,396.4671 1178,417.2431 1178,434.2931 " fill="none" id="eventSourceEndpoint-richGameRepository" style="stroke: #000000; stroke-width: 1.0;"/><polygon fill="#000000" points="1178,373.0381,1174,382.0381,1178,378.0381,1182,382.0381,1178,373.0381" style="stroke: #000000; stroke-width: 1.0;"/><!--link gameServers to udpServer--><path d="M1621.76,141.9531 C1631.72,141.9531 1641.69,141.9531 1651.65,141.9531 " fill="none" id="gameServers-udpServer" style="stroke: #000000; stroke-width: 1.0;"/><polygon fill="#000000" points="1656.86,141.9531,1647.86,137.9531,1651.86,141.9531,1647.86,145.9531,1656.86,141.9531" style="stroke: #000000; stroke-width: 1.0;"/><!--link udpServer to statusParser--><path d="M1803.22,141.9531 C1813.02,141.9531 1822.82,141.9531 1832.62,141.9531 " fill="none" id="udpServer-statusParser" style="stroke: #000000; stroke-width: 1.0;"/><polygon fill="#000000" points="1837.75,141.9531,1828.75,137.9531,1832.75,141.9531,1828.75,145.9531,1837.75,141.9531" style="stroke: #000000; stroke-width: 1.0;"/><!--link statusParser to eventSourceEndpoint2--><path d="M1974.06,141.9531 C1983.88,141.9531 1993.69,141.9531 2003.5,141.9531 " fill="none" id="statusParser-eventSourceEndpoint2" style="stroke: #000000; stroke-width: 1.0;"/><polygon fill="#000000" points="2008.64,141.9531,1999.64,137.9531,2003.64,141.9531,1999.64,145.9531,2008.64,141.9531" style="stroke: #000000; stroke-width: 1.0;"/><!--link sshLogFile to logLines3--><path d="M1658.17,331.4531 C1668.02,331.4531 1677.88,331.4531 1687.73,331.4531 " fill="none" id="sshLogFile-logLines3" style="stroke: #000000; stroke-width: 1.0;"/><polygon fill="#000000" points="1692.88,331.4531,1683.88,327.4531,1687.88,331.4531,1683.88,335.4531,1692.88,331.4531" style="stroke: #000000; stroke-width: 1.0;"/><!--link logLines3 to joinWithUsers2--><path d="M1791.07,331.4531 C1801.06,331.4531 1811.06,331.4531 1821.05,331.4531 " fill="none" id="logLines3-joinWithUsers2" style="stroke: #000000; stroke-width: 1.0;"/><polygon fill="#000000" points="1826.28,331.4531,1817.28,327.4531,1821.28,331.4531,1817.28,335.4531,1826.28,331.4531" style="stroke: #000000; stroke-width: 1.0;"/><!--link joinWithUsers2 to userLadderStatistics--><path d="M1975.81,331.4531 C1985.62,331.4531 1995.44,331.4531 2005.25,331.4531 " fill="none" id="joinWithUsers2-userLadderStatistics" style="stroke: #000000; stroke-width: 1.0;"/><polygon fill="#000000" points="2010.38,331.4531,2001.38,327.4531,2005.38,331.4531,2001.38,335.4531,2010.38,331.4531" style="stroke: #000000; stroke-width: 1.0;"/><!--link joinWithUsers2 to userRepository2--><path d="M1901,357.2731 C1901,378.8531 1901,410.3431 1901,434.3881 " fill="none" id="joinWithUsers2-userRepository2" style="stroke: #000000; stroke-width: 1.0;"/><polygon fill="#000000" points="1901,352.0101,1897,361.0101,1901,357.0101,1905,361.0101,1901,352.0101" style="stroke: #000000; stroke-width: 1.0;"/><!--link p3 to p4--><!--link userRepository3 to joinWithUsers3--><path d="M2517,367.2511 C2517,391.2801 2517,422.6601 2517,444.1711 " fill="none" id="userRepository3-joinWithUsers3" style="stroke: #000000; stroke-width: 1.0;"/><polygon fill="#000000" points="2517,449.4171,2521,440.4171,2517,444.4171,2513,440.4171,2517,449.4171" style="stroke: #000000; stroke-width: 1.0;"/><!--link flatFile3 to logLines4--><path d="M2311.58,469.9531 C2321.59,469.9531 2331.6,469.9531 2341.61,469.9531 " fill="none" id="flatFile3-logLines4" style="stroke: #000000; stroke-width: 1.0;"/><polygon fill="#000000" points="2346.84,469.9531,2337.84,465.9531,2341.84,469.9531,2337.84,473.9531,2346.84,469.9531" style="stroke: #000000; stroke-width: 1.0;"/><!--link logLines4 to joinWithUsers3--><path d="M2407.08,469.9531 C2417.07,469.9531 2427.07,469.9531 2437.06,469.9531 " fill="none" id="logLines4-joinWithUsers3" style="stroke: #000000; stroke-width: 1.0;"/><polygon fill="#000000" points="2442.29,469.9531,2433.29,465.9531,2437.29,469.9531,2433.29,473.9531,2442.29,469.9531" style="stroke: #000000; stroke-width: 1.0;"/><!--link joinWithUsers3 to eventSourceEndpoint3--><path d="M2591.59,469.9531 C2601.6,469.9531 2611.61,469.9531 2621.62,469.9531 " fill="none" id="joinWithUsers3-eventSourceEndpoint3" style="stroke: #000000; stroke-width: 1.0;"/><polygon fill="#000000" points="2626.85,469.9531,2617.85,465.9531,2621.85,469.9531,2617.85,473.9531,2626.85,469.9531" style="stroke: #000000; stroke-width: 1.0;"/><!--link p4 to p5--><!--
@startuml
skinparam DefaultTextAlignment center
skinparam arrowColor #000000
skinparam rectangleBackgroundColor #CFE2F3
skinparam fileBackgroundColor #CFE2F3
skinparam databaseBackgroundColor #CFE2F3
skinparam defaultFontSize 18

title ActionFPS portal architecture

package "log collection" as p1 {
    rectangle "syslog\nmultiple servers" <<"<&layers>">> as syslog
    rectangle "Log lines\n(Syslog server)" <<"<&layers>">> as loglines
    file "flat file" as flatfile1

        syslog -> loglines
        loglines -> flatfile1
}
package "Games, Clanwars, Achivements, Ranks" as p2 {

    file "flat file" as flatFile2
    rectangle "Log\nlines" <<"<&layers>">> as logLines2
    rectangle "Game\nparser" <<"<&layers>">> as gameParser
    rectangle "Add countries" as addCountries
    rectangle "join with\nusers" as joinWithUsers
    rectangle "Determine\nachievement" as determineAchievement
    rectangle "join with\nclans" as joinWithClans
    rectangle "Determine\nclanwar" as determineClanwar
    database "Rich game\nrepository" as richGameRepository


        flatFile2 -> logLines2
        logLines2 -> gameParser
        gameParser -> addCountries
        addCountries -> joinWithUsers
        joinWithUsers -> determineAchievement
        determineAchievement -> joinWithClans
        joinWithClans -> determineClanwar
        determineClanwar -> richGameRepository

    rectangle "GeoIP" as geoIp

    loglines -[hidden]-> geoIp

        geoIp - -> addCountries

    database "User\nrepository" as userRepository
    file "users csv" as users.csv
    file "Nicknames csv" as nicknames.csv

        joinWithUsers - -> userRepository
        userRepository <- - users.csv
        userRepository <- - nicknames.csv

    rectangle "User\nachievements" <<"<&layers>">> as userAchievements #D9D2E9
    rectangle "Hall of fame" as hallOfFame

    determineAchievement - -> userAchievements
    userAchievements - -> hallOfFame

    rectangle "Generate\nclanwars" <<"<&layers>">> as generateClanwars
    database "Clanwar\nrepository" as clanwarRepository
    rectangle "Clan ranks" as clanRanks
    rectangle "Challange Publish" as challangePublish #D9EAD3
    rectangle "Player ranks" as playerRanks
    rectangle "User statistics" <<"<&layers>">> as userStatistics #D9D2E9
    rectangle "Challange Publish" as challangePublish2 #D9EAD3
    rectangle "EventSource\nendpoint for new\ngames" as eventSourceEndpoint #D9EAD3


        joinWithClans - -> generateClanwars
        determineClanwar - -> generateClanwars
        generateClanwars - -> clanwarRepository
        clanwarRepository -> clanRanks
        clanwarRepository - -> challangePublish
        richGameRepository - -> clanRanks
        richGameRepository - -> playerRanks
        richGameRepository - -> userStatistics
        richGameRepository -> challangePublish2
        eventSourceEndpoint <- - richGameRepository
}




skinparam DefaultTextAlignment center
skinparam arrowColor #000000
skinparam rectangleBackgroundColor #CFE2F3
skinparam fileBackgroundColor #CFE2F3
skinparam databaseBackgroundColor #CFE2F3
skinparam defaultFontSize 18

package "Pinger (Live games)" as p3 {
    rectangle "Game\nservers" <<"<&layers>">> as gameServers
    rectangle "UDP server\nstatus updates" <<"<&layers>">> as udpServer
    rectangle "Status parser" <<"<&layers>">> as statusParser
    rectangle "EventSource\nendpoint for\nstatus updates" as eventSourceEndpoint2 #D9EAD3

        gameServers -> udpServer
        udpServer -> statusParser
        statusParser -> eventSourceEndpoint2
}

package "Ladder" as p4 {
    file "SSH log file" as sshLogFile
    rectangle "Log lines" <<"<&layers>">> as logLines3
    rectangle "join with users" as joinWithUsers2
    rectangle "User ladder\nstatistics" <<"<&layers>">> as userLadderStatistics #D9D2E9
    database "User\nrepository"  as userRepository2

        sshLogFile -> logLines3
        logLines3 -> joinWithUsers2
        joinWithUsers2 -> userLadderStatistics
        joinWithUsers2 <- - userRepository2
}
p3 -[hidden]-> p4

package "Inters" as p5 {
    database "User\nrepository" as userRepository3
    file "flat file" as flatFile3
    rectangle "Log\nlines" <<"<&layers>">> as logLines4
    rectangle "join with users" as joinWithUsers3
    rectangle "EventSource\nendpoint" as eventSourceEndpoint3 #D9EAD3

        userRepository3 - -> joinWithUsers3
        flatFile3 -> logLines4
        logLines4 -> joinWithUsers3
        joinWithUsers3 -> eventSourceEndpoint3
}
p4 -[hidden]> p5
@enduml

PlantUML version 1.2017.19beta12(Unknown compile time)
(GPL source distribution)
Java Runtime: Java(TM) SE Runtime Environment
JVM: Java HotSpot(TM) 64-Bit Server VM
Java Version: 1.7.0_25-b15
Operating System: Linux
Default Encoding: UTF-8
Language: en
Country: US
--></g></svg>