<?xml version="1.0" encoding="UTF-8"?><!-- Generated by graphviz version 2.38.0 (20140413.2041)
 --><!-- Title: %3 Pages: 1 --><svg xmlns="http://www.w3.org/2000/svg" xmlns:xlink="http://www.w3.org/1999/xlink" width="1289pt" height="694pt" viewBox="0.00 0.00 1289.00 694.00" preserveAspectRatio="xMidYMid meet" zoomAndPan="magnify" version="1.1" contentScriptType="text/ecmascript" contentStyleType="text/css"><svg:style xmlns:svg="http://www.w3.org/2000/svg" type="text/css">
a {
   text-decoration: underline;
   color:blue;
}
</svg:style><g id="graph0" class="graph" transform="scale(1 1) rotate(0) translate(4 690)"><title>%3</title><polygon fill="white" stroke="none" points="-4,4 -4,-690 1285,-690 1285,4 -4,4"/><!-- actionfps --><g id="node1" class="node"><title>actionfps</title><g id="a_node1"><a xlink:href="https://github.com/ScalaWilliam/ActionFPS/tree/master/" xlink:title="actionfps" xlink:type="simple" xlink:show="replace" xlink:actuate="onRequest">
<polygon fill="none" stroke="black" points="5.5,-314.5 5.5,-350.5 71.5,-350.5 71.5,-314.5 5.5,-314.5"/>
<text text-anchor="middle" x="38.5" y="-328.8" font-family="Times,serif" font-size="14.00">actionfps</text>
</a></g></g><!-- accumulation --><g id="node2" class="node"><title>accumulation</title><g id="a_node2"><a xlink:href="https://github.com/ScalaWilliam/ActionFPS/tree/master//accumulation" xlink:title="accumulation" xlink:type="simple" xlink:show="replace" xlink:actuate="onRequest">
<polygon fill="none" stroke="black" points="770.5,-404.5 770.5,-440.5 860.5,-440.5 860.5,-404.5 770.5,-404.5"/>
<text text-anchor="middle" x="815.5" y="-418.8" font-family="Times,serif" font-size="14.00">accumulation</text>
</a></g></g><!-- clan&#45;stats --><g id="node3" class="node"><title>clan-stats</title><g id="a_node3"><a xlink:href="https://github.com/ScalaWilliam/ActionFPS/tree/master//clans-clan-stats" xlink:title="clan-stats" xlink:type="simple" xlink:show="replace" xlink:actuate="onRequest">
<polygon fill="none" stroke="black" points="933,-498.5 933,-534.5 1001,-534.5 1001,-498.5 933,-498.5"/>
<text text-anchor="middle" x="967" y="-512.8" font-family="Times,serif" font-size="14.00">clan-stats</text>
</a></g></g><!-- accumulation&#45;&gt;clan&#45;stats --><g id="edge1" class="edge"><title>accumulation-&gt;clan-stats</title><path fill="none" stroke="black" d="M860.545,-431.75C905.203,-431.75 967,-431.75 967,-431.75 967,-431.75 967,-488.111 967,-488.111"/><polygon fill="black" stroke="black" points="963.5,-488.11 967,-498.111 970.5,-488.111 963.5,-488.11"/></g><!-- clans&#45;clan --><g id="node4" class="node"><title>clans-clan</title><g id="a_node4"><a xlink:href="https://github.com/ScalaWilliam/ActionFPS/tree/master//clans-clan" xlink:title="clans-clan" xlink:type="simple" xlink:show="replace" xlink:actuate="onRequest">
<polygon fill="none" stroke="black" points="1210,-455.5 1210,-491.5 1281,-491.5 1281,-455.5 1210,-455.5"/>
<text text-anchor="middle" x="1245.5" y="-469.8" font-family="Times,serif" font-size="14.00">clans-clan</text>
</a></g></g><!-- accumulation&#45;&gt;clans&#45;clan --><g id="edge2" class="edge"><title>accumulation-&gt;clans-clan</title><path fill="none" stroke="black" d="M860.551,-422.5C965.031,-422.5 1215,-422.5 1215,-422.5 1215,-422.5 1215,-445.376 1215,-445.376"/><polygon fill="black" stroke="black" points="1211.5,-445.376 1215,-455.376 1218.5,-445.376 1211.5,-445.376"/></g><!-- player&#45;achievements --><g id="node5" class="node"><title>player-achievements</title><g id="a_node5"><a xlink:href="https://github.com/ScalaWilliam/ActionFPS/tree/master//players-achievements" xlink:title="player-achievements" xlink:type="simple" xlink:show="replace" xlink:actuate="onRequest">
<polygon fill="none" stroke="black" points="902.5,-356.5 902.5,-392.5 1031.5,-392.5 1031.5,-356.5 902.5,-356.5"/>
<text text-anchor="middle" x="967" y="-370.8" font-family="Times,serif" font-size="14.00">player-achievements</text>
</a></g></g><!-- accumulation&#45;&gt;player&#45;achievements --><g id="edge3" class="edge"><title>accumulation-&gt;player-achievements</title><path fill="none" stroke="black" d="M860.756,-413.25C888.215,-413.25 918,-413.25 918,-413.25 918,-413.25 918,-402.514 918,-402.514"/><polygon fill="black" stroke="black" points="921.5,-402.514 918,-392.514 914.5,-402.514 921.5,-402.514"/></g><!-- player&#45;stats --><g id="node6" class="node"><title>player-stats</title><g id="a_node6"><a xlink:href="https://github.com/ScalaWilliam/ActionFPS/tree/master//players-stats" xlink:title="player-stats" xlink:type="simple" xlink:show="replace" xlink:actuate="onRequest">
<polygon fill="none" stroke="black" points="927.5,-254.5 927.5,-290.5 1006.5,-290.5 1006.5,-254.5 927.5,-254.5"/>
<text text-anchor="middle" x="967" y="-268.8" font-family="Times,serif" font-size="14.00">player-stats</text>
</a></g></g><!-- accumulation&#45;&gt;player&#45;stats --><g id="edge4" class="edge"><title>accumulation-&gt;player-stats</title><path fill="none" stroke="black" d="M825,-404.307C825,-367.041 825,-285.5 825,-285.5 825,-285.5 917.445,-285.5 917.445,-285.5"/><polygon fill="black" stroke="black" points="917.445,-289 927.445,-285.5 917.445,-282 917.445,-289"/></g><!-- player&#45;user --><g id="node7" class="node"><title>player-user</title><g id="a_node7"><a xlink:href="https://github.com/ScalaWilliam/ActionFPS/tree/master//players-user" xlink:title="player-user" xlink:type="simple" xlink:show="replace" xlink:actuate="onRequest">
<polygon fill="none" stroke="black" points="1082.5,-213.5 1082.5,-249.5 1159.5,-249.5 1159.5,-213.5 1082.5,-213.5"/>
<text text-anchor="middle" x="1121" y="-227.8" font-family="Times,serif" font-size="14.00">player-user</text>
</a></g></g><!-- accumulation&#45;&gt;player&#45;user --><g id="edge5" class="edge"><title>accumulation-&gt;player-user</title><path fill="none" stroke="black" d="M807,-404.4C807,-359.611 807,-247.2 807,-247.2 807,-247.2 1072.5,-247.2 1072.5,-247.2"/><polygon fill="black" stroke="black" points="1072.5,-250.7 1082.5,-247.2 1072.5,-243.7 1072.5,-250.7"/></g><!-- pure&#45;clanwar --><g id="node8" class="node"><title>pure-clanwar</title><g id="a_node8"><a xlink:href="https://github.com/ScalaWilliam/ActionFPS/tree/master//clans-clanwars-pure" xlink:title="pure-clanwar" xlink:type="simple" xlink:show="replace" xlink:actuate="onRequest">
<polygon fill="none" stroke="black" points="1077,-483.5 1077,-519.5 1165,-519.5 1165,-483.5 1077,-483.5"/>
<text text-anchor="middle" x="1121" y="-497.8" font-family="Times,serif" font-size="14.00">pure-clanwar</text>
</a></g></g><!-- accumulation&#45;&gt;pure&#45;clanwar --><g id="edge6" class="edge"><title>accumulation-&gt;pure-clanwar</title><path fill="none" stroke="black" d="M831,-440.723C831,-460.865 831,-490.5 831,-490.5 831,-490.5 1066.96,-490.5 1066.96,-490.5"/><polygon fill="black" stroke="black" points="1066.96,-494 1076.96,-490.5 1066.96,-487 1066.96,-494"/></g><!-- reference&#45;servers --><g id="node9" class="node"><title>reference-servers</title><g id="a_node9"><a xlink:href="https://github.com/ScalaWilliam/ActionFPS/tree/master//servers-reference" xlink:title="reference-servers" xlink:type="simple" xlink:show="replace" xlink:actuate="onRequest">
<polygon fill="none" stroke="black" points="912,-305.5 912,-341.5 1022,-341.5 1022,-305.5 912,-305.5"/>
<text text-anchor="middle" x="967" y="-319.8" font-family="Times,serif" font-size="14.00">reference-servers</text>
</a></g></g><!-- accumulation&#45;&gt;reference&#45;servers --><g id="edge7" class="edge"><title>accumulation-&gt;reference-servers</title><path fill="none" stroke="black" d="M843,-404.321C843,-378.071 843,-332.667 843,-332.667 843,-332.667 901.89,-332.667 901.89,-332.667"/><polygon fill="black" stroke="black" points="901.89,-336.167 911.89,-332.667 901.89,-329.167 901.89,-336.167"/></g><!-- clan&#45;stats&#45;&gt;pure&#45;clanwar --><g id="edge10" class="edge"><title>clan-stats-&gt;pure-clanwar</title><path fill="none" stroke="black" d="M1001.18,-509C1001.18,-509 1066.96,-509 1066.96,-509"/><polygon fill="black" stroke="black" points="1066.96,-512.5 1076.96,-509 1066.96,-505.5 1066.96,-512.5"/></g><!-- player&#45;achievements&#45;&gt;player&#45;user --><g id="edge17" class="edge"><title>player-achievements-&gt;player-user</title><path fill="none" stroke="black" d="M1027,-356.462C1027,-321.649 1027,-248.6 1027,-248.6 1027,-248.6 1072.5,-248.6 1072.5,-248.6"/><polygon fill="black" stroke="black" points="1072.5,-252.1 1082.5,-248.6 1072.5,-245.1 1072.5,-252.1"/></g><!-- game&#45;log&#45;parser --><g id="node14" class="node"><title>game-log-parser</title><g id="a_node14"><a xlink:href="https://github.com/ScalaWilliam/ActionFPS/tree/master//game-log-parser" xlink:title="game-log-parser" xlink:type="simple" xlink:show="replace" xlink:actuate="onRequest">
<polygon fill="none" stroke="black" points="1068,-122.5 1068,-158.5 1174,-158.5 1174,-122.5 1068,-122.5"/>
<text text-anchor="middle" x="1121" y="-136.8" font-family="Times,serif" font-size="14.00">game-log-parser</text>
</a></g></g><!-- player&#45;achievements&#45;&gt;game&#45;log&#45;parser --><g id="edge16" class="edge"><title>player-achievements-&gt;game-log-parser</title><path fill="none" stroke="black" d="M1031.71,-374.5C1054.24,-374.5 1074,-374.5 1074,-374.5 1074,-374.5 1074,-168.862 1074,-168.862"/><polygon fill="black" stroke="black" points="1077.5,-168.862 1074,-158.862 1070.5,-168.862 1077.5,-168.862"/></g><!-- game --><g id="node13" class="node"><title>game</title><g id="a_node13"><a xlink:href="https://github.com/ScalaWilliam/ActionFPS/tree/master//game" xlink:title="game" xlink:type="simple" xlink:show="replace" xlink:actuate="onRequest">
<polygon fill="none" stroke="black" points="1218.5,-254.5 1218.5,-290.5 1272.5,-290.5 1272.5,-254.5 1218.5,-254.5"/>
<text text-anchor="middle" x="1245.5" y="-268.8" font-family="Times,serif" font-size="14.00">game</text>
</a></g></g><!-- player&#45;stats&#45;&gt;game --><g id="edge18" class="edge"><title>player-stats-&gt;game</title><path fill="none" stroke="black" d="M1006.61,-272.5C1006.61,-272.5 1208.21,-272.5 1208.21,-272.5"/><polygon fill="black" stroke="black" points="1208.21,-276 1218.21,-272.5 1208.21,-269 1208.21,-276"/></g><!-- pure&#45;clanwar&#45;&gt;clans&#45;clan --><g id="edge11" class="edge"><title>pure-clanwar-&gt;clans-clan</title><path fill="none" stroke="black" d="M1165.24,-487.5C1165.24,-487.5 1199.99,-487.5 1199.99,-487.5"/><polygon fill="black" stroke="black" points="1199.99,-491 1209.99,-487.5 1199.99,-484 1199.99,-491"/></g><!-- pure&#45;clanwar&#45;&gt;game --><g id="edge12" class="edge"><title>pure-clanwar-&gt;game</title><path fill="none" stroke="black" d="M1121,-483.142C1121,-430.328 1121,-281.75 1121,-281.75 1121,-281.75 1208.49,-281.75 1208.49,-281.75"/><polygon fill="black" stroke="black" points="1208.49,-285.25 1218.49,-281.75 1208.49,-278.25 1208.49,-285.25"/></g><!-- benchmark --><g id="node10" class="node"><title>benchmark</title><g id="a_node10"><a xlink:href="https://github.com/ScalaWilliam/ActionFPS/tree/master//benchmark" xlink:title="benchmark" xlink:type="simple" xlink:show="replace" xlink:actuate="onRequest">
<polygon fill="none" stroke="black" points="0,-365.5 0,-401.5 77,-401.5 77,-365.5 0,-365.5"/>
<text text-anchor="middle" x="38.5" y="-379.8" font-family="Times,serif" font-size="14.00">benchmark</text>
</a></g></g><!-- web --><g id="node11" class="node"><title>web</title><g id="a_node11"><a xlink:href="https://github.com/ScalaWilliam/ActionFPS/tree/master//web" xlink:title="web" xlink:type="simple" xlink:show="replace" xlink:actuate="onRequest">
<polygon fill="none" stroke="black" points="113,-365.5 113,-401.5 167,-401.5 167,-365.5 113,-365.5"/>
<text text-anchor="middle" x="140" y="-379.8" font-family="Times,serif" font-size="14.00">web</text>
</a></g></g><!-- benchmark&#45;&gt;web --><g id="edge8" class="edge"><title>benchmark-&gt;web</title><path fill="none" stroke="black" d="M77.1623,-383.5C77.1623,-383.5 102.794,-383.5 102.794,-383.5"/><polygon fill="black" stroke="black" points="102.794,-387 112.794,-383.5 102.794,-380 102.794,-387"/></g><!-- web&#45;clans --><g id="node19" class="node"><title>web-clans</title><g id="a_node19"><a xlink:href="https://github.com/ScalaWilliam/ActionFPS/tree/master//web-clans" xlink:title="web-clans" xlink:type="simple" xlink:show="replace" xlink:actuate="onRequest">
<polygon fill="none" stroke="black" points="218.5,-548.5 218.5,-584.5 289.5,-584.5 289.5,-548.5 218.5,-548.5"/>
<text text-anchor="middle" x="254" y="-562.8" font-family="Times,serif" font-size="14.00">web-clans</text>
</a></g></g><!-- web&#45;&gt;web&#45;clans --><g id="edge19" class="edge"><title>web-&gt;web-clans</title><path fill="none" stroke="black" d="M124,-401.716C124,-448.003 124,-566.5 124,-566.5 124,-566.5 208.477,-566.5 208.477,-566.5"/><polygon fill="black" stroke="black" points="208.477,-570 218.477,-566.5 208.477,-563 208.477,-570"/></g><!-- web&#45;downloads --><g id="node20" class="node"><title>web-downloads</title><g id="a_node20"><a xlink:href="https://github.com/ScalaWilliam/ActionFPS/tree/master//web-downloads" xlink:title="web-downloads" xlink:type="simple" xlink:show="replace" xlink:actuate="onRequest">
<polygon fill="none" stroke="black" points="203,-436.5 203,-472.5 305,-472.5 305,-436.5 203,-436.5"/>
<text text-anchor="middle" x="254" y="-450.8" font-family="Times,serif" font-size="14.00">web-downloads</text>
</a></g></g><!-- web&#45;&gt;web&#45;downloads --><g id="edge20" class="edge"><title>web-&gt;web-downloads</title><path fill="none" stroke="black" d="M146,-401.784C146,-422.821 146,-454.5 146,-454.5 146,-454.5 192.846,-454.5 192.846,-454.5"/><polygon fill="black" stroke="black" points="192.847,-458 202.846,-454.5 192.846,-451 192.847,-458"/></g><!-- web&#45;games --><g id="node21" class="node"><title>web-games</title><g id="a_node21"><a xlink:href="https://github.com/ScalaWilliam/ActionFPS/tree/master//web-games" xlink:title="web-games" xlink:type="simple" xlink:show="replace" xlink:actuate="onRequest">
<polygon fill="none" stroke="black" points="353.5,-477.5 353.5,-513.5 432.5,-513.5 432.5,-477.5 353.5,-477.5"/>
<text text-anchor="middle" x="393" y="-491.8" font-family="Times,serif" font-size="14.00">web-games</text>
</a></g></g><!-- web&#45;&gt;web&#45;games --><g id="edge21" class="edge"><title>web-&gt;web-games</title><path fill="none" stroke="black" d="M135,-401.935C135,-432.257 135,-489.333 135,-489.333 135,-489.333 343.253,-489.333 343.253,-489.333"/><polygon fill="black" stroke="black" points="343.253,-492.833 353.253,-489.333 343.253,-485.833 343.253,-492.833"/></g><!-- web&#45;inters --><g id="node22" class="node"><title>web-inters</title><g id="a_node22"><a xlink:href="https://github.com/ScalaWilliam/ActionFPS/tree/master//web-inters" xlink:title="web-inters" xlink:type="simple" xlink:show="replace" xlink:actuate="onRequest">
<polygon fill="none" stroke="black" points="356,-365.5 356,-401.5 430,-401.5 430,-365.5 356,-365.5"/>
<text text-anchor="middle" x="393" y="-379.8" font-family="Times,serif" font-size="14.00">web-inters</text>
</a></g></g><!-- web&#45;&gt;web&#45;inters --><g id="edge22" class="edge"><title>web-&gt;web-inters</title><path fill="none" stroke="black" d="M167.075,-383.5C167.075,-383.5 345.932,-383.5 345.932,-383.5"/><polygon fill="black" stroke="black" points="345.932,-387 355.932,-383.5 345.932,-380 345.932,-387"/></g><!-- web&#45;ladder --><g id="node23" class="node"><title>web-ladder</title><g id="a_node23"><a xlink:href="https://github.com/ScalaWilliam/ActionFPS/tree/master//web-ladder" xlink:title="web-ladder" xlink:type="simple" xlink:show="replace" xlink:actuate="onRequest">
<polygon fill="none" stroke="black" points="354.5,-172.5 354.5,-208.5 431.5,-208.5 431.5,-172.5 354.5,-172.5"/>
<text text-anchor="middle" x="393" y="-186.8" font-family="Times,serif" font-size="14.00">web-ladder</text>
</a></g></g><!-- web&#45;&gt;web&#45;ladder --><g id="edge23" class="edge"><title>web-&gt;web-ladder</title><path fill="none" stroke="black" d="M135,-365.343C135,-317.298 135,-190.5 135,-190.5 135,-190.5 344.375,-190.5 344.375,-190.5"/><polygon fill="black" stroke="black" points="344.375,-194 354.375,-190.5 344.375,-187 344.375,-194"/></g><!-- web&#45;players --><g id="node24" class="node"><title>web-players</title><g id="a_node24"><a xlink:href="https://github.com/ScalaWilliam/ActionFPS/tree/master//web-players" xlink:title="web-players" xlink:type="simple" xlink:show="replace" xlink:actuate="onRequest">
<polygon fill="none" stroke="black" points="212.5,-243.5 212.5,-279.5 295.5,-279.5 295.5,-243.5 212.5,-243.5"/>
<text text-anchor="middle" x="254" y="-257.8" font-family="Times,serif" font-size="14.00">web-players</text>
</a></g></g><!-- web&#45;&gt;web&#45;players --><g id="edge24" class="edge"><title>web-&gt;web-players</title><path fill="none" stroke="black" d="M146,-365.498C146,-331.562 146,-261.5 146,-261.5 146,-261.5 202.244,-261.5 202.244,-261.5"/><polygon fill="black" stroke="black" points="202.244,-265 212.244,-261.5 202.244,-258 202.244,-265"/></g><!-- web&#45;servers --><g id="node25" class="node"><title>web-servers</title><g id="a_node25"><a xlink:href="https://github.com/ScalaWilliam/ActionFPS/tree/master//web-servers" xlink:title="web-servers" xlink:type="simple" xlink:show="replace" xlink:actuate="onRequest">
<polygon fill="none" stroke="black" points="352,-314.5 352,-350.5 434,-350.5 434,-314.5 352,-314.5"/>
<text text-anchor="middle" x="393" y="-328.8" font-family="Times,serif" font-size="14.00">web-servers</text>
</a></g></g><!-- web&#45;&gt;web&#45;servers --><g id="edge25" class="edge"><title>web-&gt;web-servers</title><path fill="none" stroke="black" d="M157,-365.376C157,-350.717 157,-332.5 157,-332.5 157,-332.5 341.892,-332.5 341.892,-332.5"/><polygon fill="black" stroke="black" points="341.892,-336 351.892,-332.5 341.892,-329 341.892,-336"/></g><!-- web&#45;template --><g id="node26" class="node"><title>web-template</title><g id="a_node26"><a xlink:href="https://github.com/ScalaWilliam/ActionFPS/tree/master//web-template" xlink:title="web-template" xlink:type="simple" xlink:show="replace" xlink:actuate="onRequest">
<polygon fill="none" stroke="black" points="497.5,-425.5 497.5,-461.5 588.5,-461.5 588.5,-425.5 497.5,-425.5"/>
<text text-anchor="middle" x="543" y="-439.8" font-family="Times,serif" font-size="14.00">web-template</text>
</a></g></g><!-- web&#45;&gt;web&#45;template --><g id="edge26" class="edge"><title>web-&gt;web-template</title><path fill="none" stroke="black" d="M157,-401.659C157,-416.067 157,-433.8 157,-433.8 157,-433.8 487.205,-433.8 487.205,-433.8"/><polygon fill="black" stroke="black" points="487.205,-437.3 497.205,-433.8 487.205,-430.3 487.205,-437.3"/></g><!-- webLogServer --><g id="node27" class="node"><title>webLogServer</title><g id="a_node27"><a xlink:href="https://github.com/ScalaWilliam/ActionFPS/tree/master//web-log-server" xlink:title="webLogServer" xlink:type="simple" xlink:show="replace" xlink:actuate="onRequest">
<polygon fill="none" stroke="black" points="206,-41.5 206,-77.5 302,-77.5 302,-41.5 206,-41.5"/>
<text text-anchor="middle" x="254" y="-55.8" font-family="Times,serif" font-size="14.00">webLogServer</text>
</a></g></g><!-- web&#45;&gt;webLogServer --><g id="edge27" class="edge"><title>web-&gt;webLogServer</title><path fill="none" stroke="black" d="M124,-365.152C124,-296.612 124,-59.5 124,-59.5 124,-59.5 195.962,-59.5 195.962,-59.5"/><polygon fill="black" stroke="black" points="195.962,-63.0001 205.962,-59.5 195.962,-56.0001 195.962,-63.0001"/></g><!-- clans&#45;challonge --><g id="node12" class="node"><title>clans-challonge</title><g id="a_node12"><a xlink:href="https://github.com/ScalaWilliam/ActionFPS/tree/master//clans-challonge" xlink:title="clans-challonge" xlink:type="simple" xlink:show="replace" xlink:actuate="onRequest">
<polygon fill="none" stroke="black" points="765,-608.5 765,-644.5 866,-644.5 866,-608.5 765,-608.5"/>
<text text-anchor="middle" x="815.5" y="-622.8" font-family="Times,serif" font-size="14.00">clans-challonge</text>
</a></g></g><!-- clans&#45;challonge&#45;&gt;pure&#45;clanwar --><g id="edge9" class="edge"><title>clans-challonge-&gt;pure-clanwar</title><path fill="none" stroke="black" d="M866.29,-626.5C953.16,-626.5 1121,-626.5 1121,-626.5 1121,-626.5 1121,-529.676 1121,-529.676"/><polygon fill="black" stroke="black" points="1124.5,-529.676 1121,-519.676 1117.5,-529.676 1124.5,-529.676"/></g><!-- game&#45;log&#45;parser&#45;&gt;game --><g id="edge13" class="edge"><title>game-log-parser-&gt;game</title><path fill="none" stroke="black" d="M1170,-158.612C1170,-192.757 1170,-263.25 1170,-263.25 1170,-263.25 1208.24,-263.25 1208.24,-263.25"/><polygon fill="black" stroke="black" points="1208.24,-266.75 1218.24,-263.25 1208.24,-259.75 1208.24,-266.75"/></g><!-- game&#45;log&#45;parser&#45;app --><g id="node15" class="node"><title>game-log-parser-app</title><g id="a_node15"><a xlink:href="https://github.com/ScalaWilliam/ActionFPS/tree/master//game-log-parser-app" xlink:title="game-log-parser-app" xlink:type="simple" xlink:show="replace" xlink:actuate="onRequest">
<polygon fill="none" stroke="black" points="902,-142.5 902,-178.5 1032,-178.5 1032,-142.5 902,-142.5"/>
<text text-anchor="middle" x="967" y="-156.8" font-family="Times,serif" font-size="14.00">game-log-parser-app</text>
</a></g></g><!-- game&#45;log&#45;parser&#45;app&#45;&gt;game&#45;log&#45;parser --><g id="edge14" class="edge"><title>game-log-parser-app-&gt;game-log-parser</title><path fill="none" stroke="black" d="M1032.31,-150.5C1032.31,-150.5 1057.71,-150.5 1057.71,-150.5"/><polygon fill="black" stroke="black" points="1057.71,-154 1067.71,-150.5 1057.71,-147 1057.71,-154"/></g><!-- inter&#45;parser --><g id="node16" class="node"><title>inter-parser</title><g id="a_node16"><a xlink:href="https://github.com/ScalaWilliam/ActionFPS/tree/master//inters-parser" xlink:title="inter-parser" xlink:type="simple" xlink:show="replace" xlink:actuate="onRequest">
<polygon fill="none" stroke="black" points="503.5,-374.5 503.5,-410.5 582.5,-410.5 582.5,-374.5 503.5,-374.5"/>
<text text-anchor="middle" x="543" y="-388.8" font-family="Times,serif" font-size="14.00">inter-parser</text>
</a></g></g><!-- ladder&#45;parser --><g id="node17" class="node"><title>ladder-parser</title><g id="a_node17"><a xlink:href="https://github.com/ScalaWilliam/ActionFPS/tree/master//ladder-parser" xlink:title="ladder-parser" xlink:type="simple" xlink:show="replace" xlink:actuate="onRequest">
<polygon fill="none" stroke="black" points="641,-127.5 641,-163.5 729,-163.5 729,-127.5 641,-127.5"/>
<text text-anchor="middle" x="685" y="-141.8" font-family="Times,serif" font-size="14.00">ladder-parser</text>
</a></g></g><!-- ladder&#45;parser&#45;&gt;game&#45;log&#45;parser --><g id="edge15" class="edge"><title>ladder-parser-&gt;game-log-parser</title><path fill="none" stroke="black" d="M729.205,-134.5C729.205,-134.5 1057.9,-134.5 1057.9,-134.5"/><polygon fill="black" stroke="black" points="1057.9,-138 1067.9,-134.5 1057.9,-131 1057.9,-138"/></g><!-- fileOffsetFinder --><g id="node18" class="node"><title>fileOffsetFinder</title><g id="a_node18"><a xlink:href="https://github.com/ScalaWilliam/ActionFPS/tree/master//log-server-file-offset-finder" xlink:title="fileOffsetFinder" xlink:type="simple" xlink:show="replace" xlink:actuate="onRequest">
<polygon fill="none" stroke="black" points="341,-0.5 341,-36.5 445,-36.5 445,-0.5 341,-0.5"/>
<text text-anchor="middle" x="393" y="-14.8" font-family="Times,serif" font-size="14.00">fileOffsetFinder</text>
</a></g></g><!-- web&#45;clans&#45;&gt;clan&#45;stats --><g id="edge28" class="edge"><title>web-clans-&gt;clan-stats</title><path fill="none" stroke="black" d="M266,-548.444C266,-537.061 266,-524.5 266,-524.5 266,-524.5 922.715,-524.5 922.715,-524.5"/><polygon fill="black" stroke="black" points="922.715,-528 932.715,-524.5 922.715,-521 922.715,-528"/></g><!-- web&#45;clans&#45;&gt;clans&#45;challonge --><g id="edge29" class="edge"><title>web-clans-&gt;clans-challonge</title><path fill="none" stroke="black" d="M254,-584.502C254,-602.175 254,-626.5 254,-626.5 254,-626.5 754.68,-626.5 754.68,-626.5"/><polygon fill="black" stroke="black" points="754.68,-630 764.68,-626.5 754.68,-623 754.68,-630"/></g><!-- web&#45;clans&#45;&gt;web&#45;games --><g id="edge32" class="edge"><title>web-clans-&gt;web-games</title><path fill="none" stroke="black" d="M243,-548.44C243,-529.257 243,-501.667 243,-501.667 243,-501.667 343.197,-501.667 343.197,-501.667"/><polygon fill="black" stroke="black" points="343.197,-505.167 353.197,-501.667 343.197,-498.167 343.197,-505.167"/></g><!-- web&#45;clans&#45;&gt;web&#45;template --><g id="edge33" class="edge"><title>web-clans-&gt;web-template</title><path fill="none" stroke="black" d="M289.727,-557.25C367.049,-557.25 543,-557.25 543,-557.25 543,-557.25 543,-471.524 543,-471.524"/><polygon fill="black" stroke="black" points="546.5,-471.524 543,-461.524 539.5,-471.524 546.5,-471.524"/></g><!-- json&#45;formats --><g id="node28" class="node"><title>json-formats</title><g id="a_node28"><a xlink:href="https://github.com/ScalaWilliam/ActionFPS/tree/master//web-json-formats" xlink:title="json-formats" xlink:type="simple" xlink:show="replace" xlink:actuate="onRequest">
<polygon fill="none" stroke="black" points="642,-411.5 642,-447.5 728,-447.5 728,-411.5 642,-411.5"/>
<text text-anchor="middle" x="685" y="-425.8" font-family="Times,serif" font-size="14.00">json-formats</text>
</a></g></g><!-- web&#45;clans&#45;&gt;json&#45;formats --><g id="edge30" class="edge"><title>web-clans-&gt;json-formats</title><path fill="none" stroke="black" d="M289.637,-566.5C392.899,-566.5 685,-566.5 685,-566.5 685,-566.5 685,-457.693 685,-457.693"/><polygon fill="black" stroke="black" points="688.5,-457.693 685,-447.693 681.5,-457.693 688.5,-457.693"/></g><!-- web&#45;clans&#45;clanwars --><g id="node29" class="node"><title>web-clans-clanwars</title><g id="a_node29"><a xlink:href="https://github.com/ScalaWilliam/ActionFPS/tree/master//web-clans-clanwars" xlink:title="web-clans-clanwars" xlink:type="simple" xlink:show="replace" xlink:actuate="onRequest">
<polygon fill="none" stroke="black" points="481,-649.5 481,-685.5 605,-685.5 605,-649.5 481,-649.5"/>
<text text-anchor="middle" x="543" y="-663.8" font-family="Times,serif" font-size="14.00">web-clans-clanwars</text>
</a></g></g><!-- web&#45;clans&#45;&gt;web&#45;clans&#45;clanwars --><g id="edge31" class="edge"><title>web-clans-&gt;web-clans-clanwars</title><path fill="none" stroke="black" d="M289.587,-575.75C355.516,-575.75 490,-575.75 490,-575.75 490,-575.75 490,-639.373 490,-639.373"/><polygon fill="black" stroke="black" points="486.5,-639.373 490,-649.373 493.5,-639.373 486.5,-639.373"/></g><!-- web&#45;downloads&#45;&gt;web&#45;template --><g id="edge35" class="edge"><title>web-downloads-&gt;web-template</title><path fill="none" stroke="black" d="M305.002,-444.667C305.002,-444.667 487.267,-444.667 487.267,-444.667"/><polygon fill="black" stroke="black" points="487.267,-448.167 497.267,-444.667 487.267,-441.167 487.267,-448.167"/></g><!-- web&#45;games&#45;&gt;accumulation --><g id="edge36" class="edge"><title>web-games-&gt;accumulation</title><path fill="none" stroke="black" d="M432.864,-486.75C535.527,-486.75 801,-486.75 801,-486.75 801,-486.75 801,-450.74 801,-450.74"/><polygon fill="black" stroke="black" points="804.5,-450.74 801,-440.74 797.5,-450.74 804.5,-450.74"/></g><!-- web&#45;games&#45;&gt;web&#45;template --><g id="edge37" class="edge"><title>web-games-&gt;web-template</title><path fill="none" stroke="black" d="M406,-477.373C406,-465.944 406,-453.333 406,-453.333 406,-453.333 487.381,-453.333 487.381,-453.333"/><polygon fill="black" stroke="black" points="487.381,-456.833 497.381,-453.333 487.381,-449.833 487.381,-456.833"/></g><!-- web&#45;inters&#45;&gt;accumulation --><g id="edge38" class="edge"><title>web-inters-&gt;accumulation</title><path fill="none" stroke="black" d="M430.255,-369.5C528.833,-369.5 789,-369.5 789,-369.5 789,-369.5 789,-394.26 789,-394.26"/><polygon fill="black" stroke="black" points="785.5,-394.26 789,-404.26 792.5,-394.26 785.5,-394.26"/></g><!-- web&#45;inters&#45;&gt;inter&#45;parser --><g id="edge39" class="edge"><title>web-inters-&gt;inter-parser</title><path fill="none" stroke="black" d="M430.079,-388C430.079,-388 493.462,-388 493.462,-388"/><polygon fill="black" stroke="black" points="493.462,-391.5 503.462,-388 493.462,-384.5 493.462,-391.5"/></g><!-- web&#45;inters&#45;&gt;web&#45;template --><g id="edge40" class="edge"><title>web-inters-&gt;web-template</title><path fill="none" stroke="black" d="M381,-401.685C381,-415.306 381,-431.6 381,-431.6 381,-431.6 487.443,-431.6 487.443,-431.6"/><polygon fill="black" stroke="black" points="487.443,-435.1 497.443,-431.6 487.443,-428.1 487.443,-435.1"/></g><!-- web&#45;ladder&#45;&gt;player&#45;user --><g id="edge44" class="edge"><title>web-ladder-&gt;player-user</title><path fill="none" stroke="black" d="M406,-208.811C406,-218.33 406,-228 406,-228 406,-228 1072.3,-228 1072.3,-228"/><polygon fill="black" stroke="black" points="1072.31,-231.5 1082.3,-228 1072.3,-224.5 1072.31,-231.5"/></g><!-- web&#45;ladder&#45;&gt;game&#45;log&#45;parser --><g id="edge42" class="edge"><title>web-ladder-&gt;game-log-parser</title><path fill="none" stroke="black" d="M431.887,-189C575.954,-189 1071,-189 1071,-189 1071,-189 1071,-168.56 1071,-168.56"/><polygon fill="black" stroke="black" points="1074.5,-168.56 1071,-158.56 1067.5,-168.56 1074.5,-168.56"/></g><!-- web&#45;ladder&#45;&gt;ladder&#45;parser --><g id="edge43" class="edge"><title>web-ladder-&gt;ladder-parser</title><path fill="none" stroke="black" d="M431.775,-175.5C511.205,-175.5 685,-175.5 685,-175.5 685,-175.5 685,-173.643 685,-173.643"/><polygon fill="black" stroke="black" points="688.5,-173.643 685,-163.643 681.5,-173.643 688.5,-173.643"/></g><!-- web&#45;ladder&#45;&gt;web&#45;template --><g id="edge45" class="edge"><title>web-ladder-&gt;web-template</title><path fill="none" stroke="black" d="M431.813,-199C436.684,-199 440,-199 440,-199 440,-199 440,-429.4 440,-429.4 440,-429.4 487.223,-429.4 487.223,-429.4"/><polygon fill="black" stroke="black" points="487.223,-432.9 497.223,-429.4 487.223,-425.9 487.223,-432.9"/></g><!-- web&#45;players&#45;&gt;player&#45;stats --><g id="edge49" class="edge"><title>web-players-&gt;player-stats</title><path fill="none" stroke="black" d="M295.677,-267C295.677,-267 917.282,-267 917.282,-267"/><polygon fill="black" stroke="black" points="917.282,-270.5 927.282,-267 917.282,-263.5 917.282,-270.5"/></g><!-- web&#45;players&#45;&gt;player&#45;user --><g id="edge50" class="edge"><title>web-players-&gt;player-user</title><path fill="none" stroke="black" d="M295.525,-245.8C295.525,-245.8 1072.05,-245.8 1072.05,-245.8"/><polygon fill="black" stroke="black" points="1072.05,-249.3 1082.05,-245.8 1072.05,-242.3 1072.05,-249.3"/></g><!-- web&#45;players&#45;&gt;web&#45;ladder --><g id="edge51" class="edge"><title>web-players-&gt;web-ladder</title><path fill="none" stroke="black" d="M295.585,-244.4C332.623,-244.4 381,-244.4 381,-244.4 381,-244.4 381,-218.748 381,-218.748"/><polygon fill="black" stroke="black" points="384.5,-218.748 381,-208.748 377.5,-218.748 384.5,-218.748"/></g><!-- web&#45;players&#45;&gt;json&#45;formats --><g id="edge48" class="edge"><title>web-players-&gt;json-formats</title><path fill="none" stroke="black" d="M254,-279.759C254,-321.042 254,-418 254,-418 254,-418 631.701,-418 631.701,-418"/><polygon fill="black" stroke="black" points="631.701,-421.5 641.701,-418 631.701,-414.5 631.701,-421.5"/></g><!-- web&#45;servers&#45;&gt;reference&#45;servers --><g id="edge52" class="edge"><title>web-servers-&gt;reference-servers</title><path fill="none" stroke="black" d="M434.281,-323.333C434.281,-323.333 901.73,-323.333 901.73,-323.333"/><polygon fill="black" stroke="black" points="901.731,-326.833 911.73,-323.333 901.73,-319.833 901.731,-326.833"/></g><!-- web&#45;servers&#45;&gt;web&#45;template --><g id="edge53" class="edge"><title>web-servers-&gt;web-template</title><path fill="none" stroke="black" d="M434.124,-346.5C449.361,-346.5 463,-346.5 463,-346.5 463,-346.5 463,-427.2 463,-427.2 463,-427.2 487.391,-427.2 487.391,-427.2"/><polygon fill="black" stroke="black" points="487.392,-430.7 497.391,-427.2 487.391,-423.7 487.392,-430.7"/></g><!-- web&#45;template&#45;&gt;json&#45;formats --><g id="edge54" class="edge"><title>web-template-&gt;json-formats</title><path fill="none" stroke="black" d="M588.711,-436.5C588.711,-436.5 631.79,-436.5 631.79,-436.5"/><polygon fill="black" stroke="black" points="631.79,-440 641.79,-436.5 631.79,-433 631.79,-440"/></g><!-- webLogServer&#45;&gt;game&#45;log&#45;parser --><g id="edge47" class="edge"><title>webLogServer-&gt;game-log-parser</title><path fill="none" stroke="black" d="M302.16,-65.6667C484.331,-65.6667 1121,-65.6667 1121,-65.6667 1121,-65.6667 1121,-112.385 1121,-112.385"/><polygon fill="black" stroke="black" points="1117.5,-112.385 1121,-122.385 1124.5,-112.385 1117.5,-112.385"/></g><!-- webLogServer&#45;&gt;fileOffsetFinder --><g id="edge46" class="edge"><title>webLogServer-&gt;fileOffsetFinder</title><path fill="none" stroke="black" d="M302.134,-53.3333C324.827,-53.3333 347,-53.3333 347,-53.3333 347,-53.3333 347,-46.7328 347,-46.7328"/><polygon fill="black" stroke="black" points="350.5,-46.7328 347,-36.7328 343.5,-46.7328 350.5,-46.7328"/></g><!-- json&#45;formats&#45;&gt;accumulation --><g id="edge41" class="edge"><title>json-formats-&gt;accumulation</title><path fill="none" stroke="black" d="M728.092,-426C728.092,-426 760.214,-426 760.214,-426"/><polygon fill="black" stroke="black" points="760.214,-429.5 770.214,-426 760.214,-422.5 760.214,-429.5"/></g><!-- web&#45;clans&#45;clanwars&#45;&gt;pure&#45;clanwar --><g id="edge34" class="edge"><title>web-clans-clanwars-&gt;pure-clanwar</title><path fill="none" stroke="black" d="M597,-649.287C597,-604.805 597,-494.25 597,-494.25 597,-494.25 1066.78,-494.25 1066.78,-494.25"/><polygon fill="black" stroke="black" points="1066.78,-497.75 1076.78,-494.25 1066.78,-490.75 1066.78,-497.75"/></g></g></svg>